<svg width="25" height="26" fill="none" xmlns="http://www.w3.org/2000/svg"><g clip-path="url(#a)" fill="#FAFAFA"><path d="M12.5 2.751c3.34 0 3.735.015 5.049.073 1.22.054 1.88.259 2.32.43.58.225 1 .498 1.435.933.44.439.708.854.932 1.435.171.44.376 1.104.43 2.32.059 1.318.073 1.713.073 5.048 0 3.34-.014 3.736-.073 5.05-.054 1.22-.259 1.879-.43 2.318a3.864 3.864 0 0 1-.932 1.436 3.85 3.85 0 0 1-1.436.933c-.44.17-1.103.375-2.32.43-1.317.058-1.713.073-5.048.073-3.34 0-3.735-.015-5.049-.074-1.22-.053-1.88-.258-2.32-.43a3.865 3.865 0 0 1-1.435-.932 3.844 3.844 0 0 1-.932-1.436c-.171-.44-.376-1.103-.43-2.319-.059-1.318-.073-1.714-.073-5.049 0-3.34.014-3.735.073-5.049.054-1.22.259-1.88.43-2.319a3.866 3.866 0 0 1 .932-1.435 3.85 3.85 0 0 1 1.436-.933c.44-.171 1.103-.376 2.32-.43 1.313-.058 1.708-.073 5.048-.073ZM12.5.5C9.106.5 8.682.515 7.349.573c-1.328.059-2.242.274-3.033.581A6.1 6.1 0 0 0 2.1 2.6 6.125 6.125 0 0 0 .654 4.812c-.307.795-.522 1.704-.58 3.032C.013 9.182 0 9.606 0 13c0 3.394.015 3.818.073 5.151.059 1.329.274 2.242.581 3.033A6.101 6.101 0 0 0 2.1 23.4a6.11 6.11 0 0 0 2.212 1.44c.795.308 1.704.523 3.032.582 1.333.058 1.758.073 5.151.073 3.394 0 3.819-.015 5.152-.073 1.328-.059 2.24-.274 3.032-.581a6.11 6.11 0 0 0 2.212-1.44 6.11 6.11 0 0 0 1.44-2.212c.308-.796.523-1.705.581-3.033.059-1.333.073-1.758.073-5.151 0-3.394-.014-3.818-.073-5.151-.058-1.329-.273-2.242-.58-3.033A5.856 5.856 0 0 0 22.9 2.6a6.11 6.11 0 0 0-2.211-1.44c-.796-.308-1.705-.523-3.033-.582C16.318.515 15.894.5 12.5.5Z"/><path d="M12.5 6.58A6.422 6.422 0 0 0 6.08 13a6.423 6.423 0 0 0 6.42 6.42A6.423 6.423 0 0 0 18.92 13a6.423 6.423 0 0 0-6.42-6.42Zm0 10.585a4.166 4.166 0 1 1 .001-8.331 4.166 4.166 0 0 1-.001 8.331Zm8.174-10.84a1.5 1.5 0 1 1-2.999 0 1.5 1.5 0 0 1 2.999 0Z"/></g><defs><clipPath id="a"><path fill="#fff" transform="translate(0 .5)" d="M0 0h25v25H0z"/></clipPath></defs></svg>