<svg width="25" height="24" fill="none" xmlns="http://www.w3.org/2000/svg"><path d="M13 2a8.642 8.642 0 0 0-6.007 2.42A8.139 8.139 0 0 0 4.5 10.25a8.011 8.011 0 0 0 1.712 4.95s.232.296.27.339L13 23l6.521-7.465c.034-.04.267-.335.267-.335v-.002A8.008 8.008 0 0 0 21.5 10.25a8.14 8.14 0 0 0-2.492-5.83A8.643 8.643 0 0 0 13 2Zm0 11.25a3.157 3.157 0 0 1-1.717-.506 3.02 3.02 0 0 1-1.139-1.346 2.918 2.918 0 0 1-.176-1.733c.12-.582.414-1.117.846-1.536.433-.42.983-.706 1.583-.821a3.178 3.178 0 0 1 1.786.17 3.073 3.073 0 0 1 1.387 1.105c.34.494.52 1.074.52 1.667a2.96 2.96 0 0 1-.905 2.12 3.143 3.143 0 0 1-2.185.88Z" fill="#FAFAFA"/></svg>