<svg width="254" height="252" fill="none" xmlns="http://www.w3.org/2000/svg"><g clip-path="url(#a)"><path d="M249.5 0H4.5a4 4 0 0 0-4 4v244a4 4 0 0 0 4 4h245a4 4 0 0 0 4-4V4a4 4 0 0 0-4-4Z" fill="#fff"/><path d="M23.02 15.75h-6.707v6.682h6.708V15.75Z" fill="#000"/><path d="M29.73 15.75h-6.71v6.682h6.71V15.75Z" fill="#000"/><path d="M36.438 15.75h-6.709v6.682h6.709V15.75Z" fill="#000"/><path d="M43.146 15.75h-6.709v6.682h6.709V15.75Zm6.708 0h-6.708v6.682h6.708V15.75Zm6.709 0h-6.709v6.682h6.709V15.75Z" fill="#000"/><path d="M63.27 15.75h-6.708v6.682h6.709V15.75Zm13.418 0h-6.709v6.682h6.709V15.75Z" fill="#000"/><path d="M83.396 15.75h-6.709v6.682h6.709V15.75Zm13.417 0h-6.709v6.682h6.709V15.75Z" fill="#000"/><path d="M103.521 15.75h-6.709v6.682h6.709V15.75Zm46.958 0h-6.708v6.682h6.708V15.75Zm13.417 0h-6.708v6.682h6.708V15.75Zm20.125 0h-6.709v6.682h6.709V15.75Zm13.417 0h-6.709v6.682h6.709V15.75Zm6.708 0h-6.708v6.682h6.708V15.75Zm6.708 0h-6.708v6.682h6.708V15.75Zm6.708 0h-6.708v6.682h6.708V15.75Zm6.709 0h-6.709v6.682h6.709V15.75Zm6.708 0h-6.708v6.682h6.708V15.75Z" fill="#000"/><path d="M237.688 15.75h-6.709v6.682h6.709V15.75ZM23.02 22.432h-6.707v6.682h6.708v-6.682Zm40.25 0h-6.708v6.682h6.709v-6.682Zm20.126 0h-6.709v6.682h6.709v-6.682Zm33.542 0h-6.709v6.682h6.709v-6.682Zm26.833 0h-6.709v6.682h6.709v-6.682Zm6.708 0h-6.708v6.682h6.708v-6.682Z" fill="#000"/><path d="M157.188 22.432h-6.709v6.682h6.709v-6.682Zm6.708 0h-6.708v6.682h6.708v-6.682Zm20.125 0h-6.709v6.682h6.709v-6.682Zm13.417 0h-6.709v6.682h6.709v-6.682Zm40.25 0h-6.709v6.682h6.709v-6.682ZM23.02 29.114h-6.707v6.681h6.708v-6.681Zm13.418 0h-6.709v6.681h6.709v-6.681Z" fill="#000"/><path d="M43.146 29.114h-6.709v6.681h6.709v-6.681Zm6.708 0h-6.708v6.681h6.708v-6.681Zm13.416 0h-6.708v6.681h6.709v-6.681Zm20.126 0h-6.709v6.681h6.709v-6.681Zm13.417 0h-6.709v6.681h6.709v-6.681Zm20.125 0h-6.709v6.681h6.709v-6.681Zm26.833 0h-6.709v6.681h6.709v-6.681Zm6.708 0h-6.708v6.681h6.708v-6.681Zm26.833 0h-6.708v6.681h6.708v-6.681Zm20.126 0h-6.709v6.681h6.709v-6.681Zm13.416 0h-6.708v6.681h6.708v-6.681Zm6.708 0h-6.708v6.681h6.708v-6.681Z" fill="#000"/><path d="M224.271 29.114h-6.709v6.681h6.709v-6.681Zm13.417 0h-6.709v6.681h6.709v-6.681ZM23.02 35.795h-6.707v6.682h6.708v-6.681Zm13.418 0h-6.709v6.682h6.709v-6.681Z" fill="#000"/><path d="M43.146 35.795h-6.709v6.682h6.709v-6.681Zm6.708 0h-6.708v6.682h6.708v-6.681Zm13.416 0h-6.708v6.682h6.709v-6.681Zm33.543 0h-6.709v6.682h6.709v-6.681Z" fill="#000"/><path d="M103.521 35.795h-6.709v6.682h6.709v-6.681Zm6.708 0h-6.708v6.682h6.708v-6.681Zm26.833 0h-6.708v6.682h6.708v-6.681Z" fill="#000"/><path d="M143.771 35.795h-6.709v6.682h6.709v-6.681Zm6.708 0h-6.708v6.682h6.708v-6.681Zm6.709 0h-6.709v6.682h6.709v-6.681Zm13.416 0h-6.708v6.682h6.708v-6.681Zm13.417 0h-6.709v6.682h6.709v-6.681Zm13.417 0h-6.709v6.682h6.709v-6.681Zm13.416 0h-6.708v6.682h6.708v-6.681Zm6.708 0h-6.708v6.682h6.708v-6.681Zm6.709 0h-6.709v6.682h6.709v-6.681Zm13.417 0h-6.709v6.682h6.709v-6.681ZM23.02 42.477h-6.707v6.682h6.708v-6.682Zm13.418 0h-6.709v6.682h6.709v-6.682Z" fill="#000"/><path d="M43.146 42.477h-6.709v6.682h6.709v-6.682Zm6.708 0h-6.708v6.682h6.708v-6.682Zm13.416 0h-6.708v6.682h6.709v-6.682Zm13.418 0h-6.709v6.682h6.709v-6.682Z" fill="#000"/><path d="M83.396 42.477h-6.709v6.682h6.709v-6.682Zm6.708 0h-6.708v6.682h6.708v-6.682Zm13.417 0h-6.709v6.682h6.709v-6.682Zm13.417 0h-6.709v6.682h6.709v-6.682Zm6.708 0h-6.708v6.682h6.708v-6.682Zm13.416 0h-6.708v6.682h6.708v-6.682Zm13.417 0h-6.708v6.682h6.708v-6.682Z" fill="#000"/><path d="M157.188 42.477h-6.709v6.682h6.709v-6.682Zm20.124 0h-6.708v6.682h6.708v-6.682Zm6.709 0h-6.709v6.682h6.709v-6.682Zm13.417 0h-6.709v6.682h6.709v-6.682Zm13.416 0h-6.708v6.682h6.708v-6.682Zm6.708 0h-6.708v6.682h6.708v-6.682Zm6.709 0h-6.709v6.682h6.709v-6.682Zm13.417 0h-6.709v6.682h6.709v-6.682ZM23.02 49.16h-6.707v6.68h6.708v-6.68Zm40.25 0h-6.708v6.68h6.709v-6.68Zm20.126 0h-6.709v6.68h6.709v-6.68Zm26.833 0h-6.708v6.68h6.708v-6.68Zm20.125 0h-6.708v6.68h6.708v-6.68Zm26.834 0h-6.709v6.68h6.709v-6.68Zm6.708 0h-6.708v6.68h6.708v-6.68Zm6.708 0h-6.708v6.68h6.708v-6.68Zm6.708 0h-6.708v6.68h6.708v-6.68Zm6.709 0h-6.709v6.68h6.709v-6.68Zm13.417 0h-6.709v6.68h6.709v-6.68Zm40.25 0h-6.709v6.68h6.709v-6.68ZM23.02 55.84h-6.707v6.683h6.708V55.84Z" fill="#000"/><path d="M29.73 55.84h-6.71v6.683h6.71V55.84Z" fill="#000"/><path d="M36.438 55.84h-6.709v6.683h6.709V55.84Z" fill="#000"/><path d="M43.146 55.84h-6.709v6.683h6.709V55.84Zm6.708 0h-6.708v6.683h6.708V55.84Zm6.709 0h-6.709v6.683h6.709V55.84Z" fill="#000"/><path d="M63.27 55.84h-6.708v6.683h6.709V55.84Zm13.418 0h-6.709v6.683h6.709V55.84Zm13.416 0h-6.708v6.683h6.708V55.84Zm13.417 0h-6.709v6.683h6.709V55.84Zm13.417 0h-6.709v6.683h6.709V55.84Zm13.416 0h-6.708v6.683h6.708V55.84Zm13.417 0h-6.709v6.683h6.709V55.84Zm13.417 0h-6.709v6.683h6.709V55.84Zm13.416 0h-6.708v6.683h6.708V55.84Zm13.417 0h-6.709v6.683h6.709V55.84Zm13.417 0h-6.709v6.683h6.709V55.84Zm6.708 0h-6.708v6.683h6.708V55.84Zm6.708 0h-6.708v6.683h6.708V55.84Zm6.708 0h-6.708v6.683h6.708V55.84Z" fill="#000"/><path d="M224.271 55.84h-6.709v6.683h6.709V55.84Zm6.708 0h-6.708v6.683h6.708V55.84Zm6.709 0h-6.709v6.683h6.709V55.84Zm-161 6.683h-6.709v6.681h6.709v-6.681Z" fill="#000"/><path d="M83.396 62.523h-6.709v6.681h6.709v-6.681Zm6.708 0h-6.708v6.681h6.708v-6.681Zm20.125 0h-6.708v6.681h6.708v-6.681Zm13.417 0h-6.708v6.681h6.708v-6.681Zm13.416 0h-6.708v6.681h6.708v-6.681Z" fill="#000"/><path d="M143.771 62.523h-6.709v6.681h6.709v-6.681Zm13.417 0h-6.709v6.681h6.709v-6.681Zm6.708 0h-6.708v6.681h6.708v-6.681Zm6.708 0h-6.708v6.681h6.708v-6.681Zm13.417 0h-6.709v6.681h6.709v-6.681ZM23.02 69.204h-6.707v6.682h6.708v-6.681Zm20.126 0h-6.709v6.682h6.709v-6.681Zm6.708 0h-6.708v6.682h6.708v-6.681Zm6.709 0h-6.709v6.682h6.709v-6.681Z" fill="#000"/><path d="M63.27 69.204h-6.708v6.682h6.709v-6.681Z" fill="#000"/><path d="M69.98 69.204h-6.71v6.682h6.71v-6.681Z" fill="#000"/><path d="M76.688 69.204h-6.709v6.682h6.709v-6.681Zm13.416 0h-6.708v6.682h6.708v-6.681Zm93.917 0h-6.709v6.682h6.709v-6.681Zm6.708 0h-6.708v6.682h6.708v-6.681Z" fill="#000"/><path d="M197.438 69.204h-6.709v6.682h6.709v-6.681Zm13.416 0h-6.708v6.682h6.708v-6.681Zm26.834 0h-6.709v6.682h6.709v-6.681ZM23.02 75.886h-6.707v6.682h6.708v-6.682Zm13.418 0h-6.709v6.682h6.709v-6.682Z" fill="#000"/><path d="M43.146 75.886h-6.709v6.682h6.709v-6.682Zm6.708 0h-6.708v6.682h6.708v-6.682Zm20.126 0h-6.71v6.682h6.71v-6.682Zm13.416 0h-6.709v6.682h6.709v-6.682Zm6.708 0h-6.708v6.682h6.708v-6.682Zm6.709 0h-6.709v6.682h6.709v-6.682Zm13.416 0h-6.708v6.682h6.708v-6.682Zm13.417 0h-6.708v6.682h6.708v-6.682Zm6.708 0h-6.708v6.682h6.708v-6.682Zm6.708 0h-6.708v6.682h6.708v-6.682Z" fill="#000"/><path d="M143.771 75.886h-6.709v6.682h6.709v-6.682Zm13.417 0h-6.709v6.682h6.709v-6.682Zm6.708 0h-6.708v6.682h6.708v-6.682Zm6.708 0h-6.708v6.682h6.708v-6.682Zm20.125 0h-6.708v6.682h6.708v-6.682Zm13.417 0h-6.708v6.682h6.708v-6.682Zm6.708 0h-6.708v6.682h6.708v-6.682Zm13.417 0h-6.709v6.682h6.709v-6.682Zm6.708 0h-6.708v6.682h6.708v-6.682Zm6.709 0h-6.709v6.682h6.709v-6.682ZM23.02 82.568h-6.707v6.682h6.708v-6.682Z" fill="#000"/><path d="M29.73 82.568h-6.71v6.682h6.71v-6.682Zm13.416 0h-6.709v6.682h6.709v-6.682Zm13.417 0h-6.709v6.682h6.709v-6.682Z" fill="#000"/><path d="M63.27 82.568h-6.708v6.682h6.709v-6.682Zm13.418 0h-6.709v6.682h6.709v-6.682Zm13.416 0h-6.708v6.682h6.708v-6.682Zm13.417 0h-6.709v6.682h6.709v-6.682Zm6.708 0h-6.708v6.682h6.708v-6.682Zm6.709 0h-6.709v6.682h6.709v-6.682Zm26.833 0h-6.709v6.682h6.709v-6.682Zm6.708 0h-6.708v6.682h6.708v-6.682Z" fill="#000"/><path d="M157.188 82.568h-6.709v6.682h6.709v-6.682Zm6.708 0h-6.708v6.682h6.708v-6.682Zm6.708 0h-6.708v6.682h6.708v-6.682Zm20.125 0h-6.708v6.682h6.708v-6.682Zm6.709 0h-6.709v6.682h6.709v-6.682Zm20.124 0h-6.708v6.682h6.708v-6.682Zm13.417 0h-6.708v6.682h6.708v-6.682ZM23.02 89.25h-6.707v6.682h6.708V89.25Zm26.834 0h-6.708v6.682h6.708V89.25Zm6.709 0h-6.709v6.682h6.709V89.25Zm13.417 0h-6.71v6.682h6.71V89.25Z" fill="#000"/><path d="M76.688 89.25h-6.709v6.682h6.709V89.25Zm20.125 0h-6.709v6.682h6.709V89.25Zm13.416 0h-6.708v6.682h6.708V89.25Zm13.417 0h-6.708v6.682h6.708V89.25Zm6.708 0h-6.708v6.682h6.708V89.25Zm6.708 0h-6.708v6.682h6.708V89.25Zm13.417 0h-6.708v6.682h6.708V89.25Zm26.833 0h-6.708v6.682h6.708V89.25Z" fill="#000"/><path d="M184.021 89.25h-6.709v6.682h6.709V89.25Zm6.708 0h-6.708v6.682h6.708V89.25Zm6.709 0h-6.709v6.682h6.709V89.25Zm6.708 0h-6.708v6.682h6.708V89.25Zm6.708 0h-6.708v6.682h6.708V89.25Zm13.417 0h-6.709v6.682h6.709V89.25ZM23.02 95.932h-6.707v6.682h6.708v-6.682Z" fill="#000"/><path d="M29.73 95.932h-6.71v6.682h6.71v-6.682Z" fill="#000"/><path d="M36.438 95.932h-6.709v6.682h6.709v-6.682Zm20.125 0h-6.709v6.682h6.709v-6.682Z" fill="#000"/><path d="M63.27 95.932h-6.708v6.682h6.709v-6.682Zm13.418 0h-6.709v6.682h6.709v-6.682Zm13.416 0h-6.708v6.682h6.708v-6.682Zm13.417 0h-6.709v6.682h6.709v-6.682Zm13.417 0h-6.709v6.682h6.709v-6.682Zm13.416 0h-6.708v6.682h6.708v-6.682Zm20.125 0h-6.708v6.682h6.708v-6.682Zm26.833 0h-6.708v6.682h6.708v-6.682Zm20.126 0h-6.709v6.682h6.709v-6.682Zm6.708 0h-6.708v6.682h6.708v-6.682Zm20.125 0h-6.709v6.682h6.709v-6.682Zm-187.833 6.682h-6.709v6.681h6.709v-6.681Zm20.125 0h-6.709v6.681h6.709v-6.681Zm26.833 0h-6.709v6.681h6.709v-6.681Zm20.125 0h-6.709v6.681h6.709v-6.681Zm6.708 0h-6.708v6.681h6.708v-6.681Zm13.417 0h-6.708v6.681h6.708v-6.681Zm13.416 0h-6.708v6.681h6.708v-6.681Zm13.417 0h-6.708v6.681h6.708v-6.681Z" fill="#000"/><path d="M157.188 102.614h-6.709v6.681h6.709v-6.681Zm20.124 0h-6.708v6.681h6.708v-6.681Zm26.834 0h-6.708v6.681h6.708v-6.681Zm6.708 0h-6.708v6.681h6.708v-6.681Zm26.834 0h-6.709v6.681h6.709v-6.681ZM23.02 109.295h-6.707v6.682h6.708v-6.682Zm20.126 0h-6.709v6.682h6.709v-6.682Zm6.708 0h-6.708v6.682h6.708v-6.682Zm13.416 0h-6.708v6.682h6.709v-6.682Z" fill="#000"/><path d="M69.98 109.295h-6.71v6.682h6.71v-6.682Zm13.416 0h-6.709v6.682h6.709v-6.682Zm13.417 0h-6.709v6.682h6.709v-6.682Z" fill="#000"/><path d="M103.521 109.295h-6.709v6.682h6.709v-6.682Zm33.541 0h-6.708v6.682h6.708v-6.682Zm26.834 0h-6.708v6.682h6.708v-6.682Zm40.25 0h-6.708v6.682h6.708v-6.682ZM23.02 115.977h-6.707v6.682h6.708v-6.682Zm20.126 0h-6.709v6.682h6.709v-6.682Zm26.834 0h-6.71v6.682h6.71v-6.682Zm13.416 0h-6.709v6.682h6.709v-6.682Zm6.708 0h-6.708v6.682h6.708v-6.682Zm13.417 0h-6.709v6.682h6.709v-6.682Zm26.833 0h-6.708v6.682h6.708v-6.682Zm6.708 0h-6.708v6.682h6.708v-6.682Zm6.709 0h-6.709v6.682h6.709v-6.682Zm13.417 0h-6.709v6.682h6.709v-6.682Zm13.416 0h-6.708v6.682h6.708v-6.682Zm6.708 0h-6.708v6.682h6.708v-6.682Zm13.417 0h-6.708v6.682h6.708v-6.682Zm6.709 0h-6.709v6.682h6.709v-6.682Zm13.416 0h-6.708v6.682h6.708v-6.682Zm26.834 0h-6.709v6.682h6.709v-6.682ZM23.02 122.659h-6.707v6.682h6.708v-6.682Z" fill="#000"/><path d="M29.73 122.659h-6.71v6.682h6.71v-6.682Z" fill="#000"/><path d="M36.438 122.659h-6.709v6.682h6.709v-6.682Zm20.125 0h-6.709v6.682h6.709v-6.682Z" fill="#000"/><path d="M63.27 122.659h-6.708v6.682h6.709v-6.682Z" fill="#000"/><path d="M69.98 122.659h-6.71v6.682h6.71v-6.682Z" fill="#000"/><path d="M76.688 122.659h-6.709v6.682h6.709v-6.682Z" fill="#000"/><path d="M83.396 122.659h-6.709v6.682h6.709v-6.682Zm26.833 0h-6.708v6.682h6.708v-6.682Zm6.709 0h-6.709v6.682h6.709v-6.682Zm20.124 0h-6.708v6.682h6.708v-6.682Zm13.417 0h-6.708v6.682h6.708v-6.682Z" fill="#000"/><path d="M157.188 122.659h-6.709v6.682h6.709v-6.682Zm20.124 0h-6.708v6.682h6.708v-6.682Zm13.417 0h-6.708v6.682h6.708v-6.682Zm26.833 0h-6.708v6.682h6.708v-6.682Zm6.709 0h-6.709v6.682h6.709v-6.682ZM23.02 129.341h-6.707v6.682h6.708v-6.682Z" fill="#000"/><path d="M29.73 129.341h-6.71v6.682h6.71v-6.682Zm13.416 0h-6.709v6.682h6.709v-6.682Zm6.708 0h-6.708v6.682h6.708v-6.682Zm6.709 0h-6.709v6.682h6.709v-6.682Zm13.417 0h-6.71v6.682h6.71v-6.682Z" fill="#000"/><path d="M76.688 129.341h-6.709v6.682h6.709v-6.682Zm13.416 0h-6.708v6.682h6.708v-6.682Zm6.709 0h-6.709v6.682h6.709v-6.682Zm26.833 0h-6.708v6.682h6.708v-6.682Zm6.708 0h-6.708v6.682h6.708v-6.682Zm6.708 0h-6.708v6.682h6.708v-6.682Zm26.834 0h-6.708v6.682h6.708v-6.682Zm13.416 0h-6.708v6.682h6.708v-6.682Z" fill="#000"/><path d="M184.021 129.341h-6.709v6.682h6.709v-6.682Zm13.417 0h-6.709v6.682h6.709v-6.682Zm6.708 0h-6.708v6.682h6.708v-6.682Zm13.416 0h-6.708v6.682h6.708v-6.682Zm6.709 0h-6.709v6.682h6.709v-6.682Zm6.708 0h-6.708v6.682h6.708v-6.682Zm6.709 0h-6.709v6.682h6.709v-6.682ZM23.02 136.023h-6.707v6.682h6.708v-6.682Zm20.126 0h-6.709v6.682h6.709v-6.682Zm6.708 0h-6.708v6.682h6.708v-6.682Zm13.416 0h-6.708v6.682h6.709v-6.682Zm20.126 0h-6.709v6.682h6.709v-6.682Zm13.417 0h-6.709v6.682h6.709v-6.682Z" fill="#000"/><path d="M103.521 136.023h-6.709v6.682h6.709v-6.682Zm20.125 0h-6.708v6.682h6.708v-6.682Zm13.416 0h-6.708v6.682h6.708v-6.682Z" fill="#000"/><path d="M143.771 136.023h-6.709v6.682h6.709v-6.682Zm20.125 0h-6.708v6.682h6.708v-6.682Zm6.708 0h-6.708v6.682h6.708v-6.682Zm6.708 0h-6.708v6.682h6.708v-6.682Zm13.417 0h-6.708v6.682h6.708v-6.682Zm13.417 0h-6.708v6.682h6.708v-6.682Zm6.708 0h-6.708v6.682h6.708v-6.682Zm13.417 0h-6.709v6.682h6.709v-6.682Zm6.708 0h-6.708v6.682h6.708v-6.682Zm6.709 0h-6.709v6.682h6.709v-6.682ZM29.73 142.705h-6.71v6.681h6.71v-6.681Zm13.416 0h-6.709v6.681h6.709v-6.681Zm6.708 0h-6.708v6.681h6.708v-6.681Zm6.709 0h-6.709v6.681h6.709v-6.681Zm20.125 0h-6.709v6.681h6.709v-6.681Zm26.833 0h-6.709v6.681h6.709v-6.681Zm6.708 0h-6.708v6.681h6.708v-6.681Zm6.709 0h-6.709v6.681h6.709v-6.681Zm6.708 0h-6.708v6.681h6.708v-6.681Zm26.833 0h-6.708v6.681h6.708v-6.681Zm6.709 0h-6.709v6.681h6.709v-6.681Zm6.708 0h-6.708v6.681h6.708v-6.681Zm20.125 0h-6.709v6.681h6.709v-6.681Zm20.125 0h-6.708v6.681h6.708v-6.681Zm6.708 0h-6.708v6.681h6.708v-6.681Zm6.708 0h-6.708v6.681h6.708v-6.681Z" fill="#000"/><path d="M224.271 142.705h-6.709v6.681h6.709v-6.681Zm6.708 0h-6.708v6.681h6.708v-6.681ZM23.02 149.386h-6.707v6.682h6.708v-6.682Zm13.418 0h-6.709v6.682h6.709v-6.682Z" fill="#000"/><path d="M43.146 149.386h-6.709v6.682h6.709v-6.682Zm6.708 0h-6.708v6.682h6.708v-6.682Zm13.416 0h-6.708v6.682h6.709v-6.682Zm13.418 0h-6.709v6.682h6.709v-6.682Zm13.416 0h-6.708v6.682h6.708v-6.682Zm13.417 0h-6.709v6.682h6.709v-6.682Zm20.125 0h-6.708v6.682h6.708v-6.682Zm6.708 0h-6.708v6.682h6.708v-6.682Zm33.542 0h-6.708v6.682h6.708v-6.682Zm6.708 0h-6.708v6.682h6.708v-6.682Zm26.834 0h-6.709v6.682h6.709v-6.682Zm6.708 0h-6.708v6.682h6.708v-6.682Zm6.708 0h-6.708v6.682h6.708v-6.682Zm20.125 0h-6.708v6.682h6.708v-6.682Zm6.709 0h-6.709v6.682h6.709v-6.682ZM23.02 156.068h-6.707v6.682h6.708v-6.682Z" fill="#000"/><path d="M29.73 156.068h-6.71v6.682h6.71v-6.682Z" fill="#000"/><path d="M36.438 156.068h-6.709v6.682h6.709v-6.682Zm13.416 0h-6.708v6.682h6.708v-6.682Zm6.709 0h-6.709v6.682h6.709v-6.682Zm13.417 0h-6.71v6.682h6.71v-6.682Z" fill="#000"/><path d="M76.688 156.068h-6.709v6.682h6.709v-6.682Zm13.416 0h-6.708v6.682h6.708v-6.682Zm6.709 0h-6.709v6.682h6.709v-6.682Z" fill="#000"/><path d="M103.521 156.068h-6.709v6.682h6.709v-6.682Zm20.125 0h-6.708v6.682h6.708v-6.682Zm6.708 0h-6.708v6.682h6.708v-6.682Zm20.125 0h-6.708v6.682h6.708v-6.682Z" fill="#000"/><path d="M157.188 156.068h-6.709v6.682h6.709v-6.682Zm13.416 0h-6.708v6.682h6.708v-6.682Zm6.708 0h-6.708v6.682h6.708v-6.682Zm6.709 0h-6.709v6.682h6.709v-6.682Zm6.708 0h-6.708v6.682h6.708v-6.682Zm13.417 0h-6.708v6.682h6.708v-6.682Zm20.125 0h-6.709v6.682h6.709v-6.682Zm6.708 0h-6.708v6.682h6.708v-6.682Zm6.709 0h-6.709v6.682h6.709v-6.682ZM29.73 162.75h-6.71v6.682h6.71v-6.682Z" fill="#000"/><path d="M36.438 162.75h-6.709v6.682h6.709v-6.682Zm20.125 0h-6.709v6.682h6.709v-6.682Z" fill="#000"/><path d="M63.27 162.75h-6.708v6.682h6.709v-6.682Z" fill="#000"/><path d="M69.98 162.75h-6.71v6.682h6.71v-6.682Z" fill="#000"/><path d="M76.688 162.75h-6.709v6.682h6.709v-6.682Z" fill="#000"/><path d="M83.396 162.75h-6.709v6.682h6.709v-6.682Zm20.125 0h-6.709v6.682h6.709v-6.682Zm13.417 0h-6.709v6.682h6.709v-6.682Zm13.416 0h-6.708v6.682h6.708v-6.682Zm6.708 0h-6.708v6.682h6.708v-6.682Zm40.25 0h-6.708v6.682h6.708v-6.682Z" fill="#000"/><path d="M184.021 162.75h-6.709v6.682h6.709v-6.682Zm40.25 0h-6.709v6.682h6.709v-6.682Zm13.417 0h-6.709v6.682h6.709v-6.682ZM23.02 169.432h-6.707v6.682h6.708v-6.682Zm13.418 0h-6.709v6.682h6.709v-6.682Zm13.416 0h-6.708v6.682h6.708v-6.682Zm33.542 0h-6.709v6.682h6.709v-6.682Zm6.708 0h-6.708v6.682h6.708v-6.682Zm13.417 0h-6.709v6.682h6.709v-6.682Zm6.708 0h-6.708v6.682h6.708v-6.682Zm6.709 0h-6.709v6.682h6.709v-6.682Zm13.416 0h-6.708v6.682h6.708v-6.682Zm6.708 0h-6.708v6.682h6.708v-6.682Z" fill="#000"/><path d="M143.771 169.432h-6.709v6.682h6.709v-6.682Zm26.833 0h-6.708v6.682h6.708v-6.682Zm6.708 0h-6.708v6.682h6.708v-6.682Zm13.417 0h-6.708v6.682h6.708v-6.682Zm26.833 0h-6.708v6.682h6.708v-6.682Zm13.417 0h-6.708v6.682h6.708v-6.682Zm6.709 0h-6.709v6.682h6.709v-6.682ZM63.27 176.114h-6.708v6.681h6.709v-6.681Zm13.418 0h-6.709v6.681h6.709v-6.681Zm20.125 0h-6.709v6.681h6.709v-6.681Zm20.125 0h-6.709v6.681h6.709v-6.681Zm6.708 0h-6.708v6.681h6.708v-6.681Zm6.708 0h-6.708v6.681h6.708v-6.681Zm6.708 0h-6.708v6.681h6.708v-6.681Z" fill="#000"/><path d="M143.771 176.114h-6.709v6.681h6.709v-6.681Zm6.708 0h-6.708v6.681h6.708v-6.681Zm20.125 0h-6.708v6.681h6.708v-6.681Zm13.417 0h-6.709v6.681h6.709v-6.681Zm6.708 0h-6.708v6.681h6.708v-6.681Zm6.709 0h-6.709v6.681h6.709v-6.681Zm6.708 0h-6.708v6.681h6.708v-6.681Zm6.708 0h-6.708v6.681h6.708v-6.681Zm20.125 0h-6.708v6.681h6.708v-6.681Zm6.709 0h-6.709v6.681h6.709v-6.681Zm-161 6.681h-6.709v6.682h6.709v-6.682Z" fill="#000"/><path d="M83.396 182.795h-6.709v6.682h6.709v-6.682Zm6.708 0h-6.708v6.682h6.708v-6.682Zm20.125 0h-6.708v6.682h6.708v-6.682Zm6.709 0h-6.709v6.682h6.709v-6.682Zm6.708 0h-6.708v6.682h6.708v-6.682Zm20.125 0h-6.709v6.682h6.709v-6.682Zm6.708 0h-6.708v6.682h6.708v-6.682Zm13.417 0h-6.708v6.682h6.708v-6.682Zm6.708 0h-6.708v6.682h6.708v-6.682Zm6.708 0h-6.708v6.682h6.708v-6.682Z" fill="#000"/><path d="M184.021 182.795h-6.709v6.682h6.709v-6.682Zm26.833 0h-6.708v6.682h6.708v-6.682Zm13.417 0h-6.709v6.682h6.709v-6.682Zm6.708 0h-6.708v6.682h6.708v-6.682Zm6.709 0h-6.709v6.682h6.709v-6.682ZM23.02 189.477h-6.707v6.682h6.708v-6.682Z" fill="#000"/><path d="M29.73 189.477h-6.71v6.682h6.71v-6.682Z" fill="#000"/><path d="M36.438 189.477h-6.709v6.682h6.709v-6.682Z" fill="#000"/><path d="M43.146 189.477h-6.709v6.682h6.709v-6.682Zm6.708 0h-6.708v6.682h6.708v-6.682Zm6.709 0h-6.709v6.682h6.709v-6.682Z" fill="#000"/><path d="M63.27 189.477h-6.708v6.682h6.709v-6.682Zm13.418 0h-6.709v6.682h6.709v-6.682Zm13.416 0h-6.708v6.682h6.708v-6.682Zm13.417 0h-6.709v6.682h6.709v-6.682Zm13.417 0h-6.709v6.682h6.709v-6.682Zm6.708 0h-6.708v6.682h6.708v-6.682Zm6.708 0h-6.708v6.682h6.708v-6.682Zm26.834 0h-6.709v6.682h6.709v-6.682Zm20.124 0h-6.708v6.682h6.708v-6.682Z" fill="#000"/><path d="M184.021 189.477h-6.709v6.682h6.709v-6.682Zm13.417 0h-6.709v6.682h6.709v-6.682Zm13.416 0h-6.708v6.682h6.708v-6.682Zm6.708 0h-6.708v6.682h6.708v-6.682Zm6.709 0h-6.709v6.682h6.709v-6.682Zm6.708 0h-6.708v6.682h6.708v-6.682ZM23.02 196.159h-6.707v6.682h6.708v-6.682Zm40.25 0h-6.708v6.682h6.709v-6.682Zm13.418 0h-6.709v6.682h6.709v-6.682Zm33.541 0h-6.708v6.682h6.708v-6.682Zm33.542 0h-6.709v6.682h6.709v-6.682Zm6.708 0h-6.708v6.682h6.708v-6.682Zm13.417 0h-6.708v6.682h6.708v-6.682Zm20.125 0h-6.709v6.682h6.709v-6.682Zm26.833 0h-6.708v6.682h6.708v-6.682Zm6.708 0h-6.708v6.682h6.708v-6.682Zm6.709 0h-6.709v6.682h6.709v-6.682ZM23.02 202.841h-6.707v6.682h6.708v-6.682Zm13.418 0h-6.709v6.682h6.709v-6.682Z" fill="#000"/><path d="M43.146 202.841h-6.709v6.682h6.709v-6.682Zm6.708 0h-6.708v6.682h6.708v-6.682Zm13.416 0h-6.708v6.682h6.709v-6.682Zm13.418 0h-6.709v6.682h6.709v-6.682Zm26.833 0h-6.709v6.682h6.709v-6.682Zm13.417 0h-6.709v6.682h6.709v-6.682Zm6.708 0h-6.708v6.682h6.708v-6.682Zm6.708 0h-6.708v6.682h6.708v-6.682Zm26.834 0h-6.709v6.682h6.709v-6.682Zm26.833 0h-6.709v6.682h6.709v-6.682Zm6.708 0h-6.708v6.682h6.708v-6.682Zm6.709 0h-6.709v6.682h6.709v-6.682Zm6.708 0h-6.708v6.682h6.708v-6.682Zm6.708 0h-6.708v6.682h6.708v-6.682Zm6.708 0h-6.708v6.682h6.708v-6.682Zm6.709 0h-6.709v6.682h6.709v-6.682ZM23.02 209.523h-6.707v6.682h6.708v-6.682Zm13.418 0h-6.709v6.682h6.709v-6.682Z" fill="#000"/><path d="M43.146 209.523h-6.709v6.682h6.709v-6.682Zm6.708 0h-6.708v6.682h6.708v-6.682Zm13.416 0h-6.708v6.682h6.709v-6.682Zm13.418 0h-6.709v6.682h6.709v-6.682Z" fill="#000"/><path d="M83.396 209.523h-6.709v6.682h6.709v-6.682Zm6.708 0h-6.708v6.682h6.708v-6.682Zm13.417 0h-6.709v6.682h6.709v-6.682Zm6.708 0h-6.708v6.682h6.708v-6.682Zm6.709 0h-6.709v6.682h6.709v-6.682Zm20.124 0h-6.708v6.682h6.708v-6.682Z" fill="#000"/><path d="M143.771 209.523h-6.709v6.682h6.709v-6.682Zm13.417 0h-6.709v6.682h6.709v-6.682Zm6.708 0h-6.708v6.682h6.708v-6.682Zm33.542 0h-6.709v6.682h6.709v-6.682Zm13.416 0h-6.708v6.682h6.708v-6.682Zm6.708 0h-6.708v6.682h6.708v-6.682Zm20.126 0h-6.709v6.682h6.709v-6.682ZM23.02 216.205h-6.707v6.681h6.708v-6.681Zm13.418 0h-6.709v6.681h6.709v-6.681Z" fill="#000"/><path d="M43.146 216.205h-6.709v6.681h6.709v-6.681Zm6.708 0h-6.708v6.681h6.708v-6.681Zm13.416 0h-6.708v6.681h6.709v-6.681Zm20.126 0h-6.709v6.681h6.709v-6.681Zm53.666 0h-6.708v6.681h6.708v-6.681Zm33.542 0h-6.708v6.681h6.708v-6.681Zm20.125 0h-6.708v6.681h6.708v-6.681Zm26.833 0h-6.708v6.681h6.708v-6.681Z" fill="#000"/><path d="M224.271 216.205h-6.709v6.681h6.709v-6.681Zm13.417 0h-6.709v6.681h6.709v-6.681ZM23.02 222.886h-6.707v6.682h6.708v-6.682Zm40.25 0h-6.708v6.682h6.709v-6.682Zm20.126 0h-6.709v6.682h6.709v-6.682Zm6.708 0h-6.708v6.682h6.708v-6.682Zm6.709 0h-6.709v6.682h6.709v-6.682Zm20.125 0h-6.709v6.682h6.709v-6.682Zm13.416 0h-6.708v6.682h6.708v-6.682Zm6.708 0h-6.708v6.682h6.708v-6.682Z" fill="#000"/><path d="M143.771 222.886h-6.709v6.682h6.709v-6.682Zm20.125 0h-6.708v6.682h6.708v-6.682Zm6.708 0h-6.708v6.682h6.708v-6.682Zm13.417 0h-6.709v6.682h6.709v-6.682Zm13.417 0h-6.709v6.682h6.709v-6.682Zm6.708 0h-6.708v6.682h6.708v-6.682ZM23.02 229.568h-6.707v6.682h6.708v-6.682Z" fill="#000"/><path d="M29.73 229.568h-6.71v6.682h6.71v-6.682Z" fill="#000"/><path d="M36.438 229.568h-6.709v6.682h6.709v-6.682Z" fill="#000"/><path d="M43.146 229.568h-6.709v6.682h6.709v-6.682Zm6.708 0h-6.708v6.682h6.708v-6.682Zm6.709 0h-6.709v6.682h6.709v-6.682Z" fill="#000"/><path d="M63.27 229.568h-6.708v6.682h6.709v-6.682Zm13.418 0h-6.709v6.682h6.709v-6.682Zm20.125 0h-6.709v6.682h6.709v-6.682Zm60.375 0h-6.709v6.682h6.709v-6.682Zm26.833 0h-6.709v6.682h6.709v-6.682Zm26.833 0h-6.708v6.682h6.708v-6.682Zm26.834 0h-6.709v6.682h6.709v-6.682Z" fill="#000"/></g><defs><clipPath id="a"><path fill="#fff" transform="translate(.5)" d="M0 0h253v252H0z"/></clipPath></defs></svg>