<svg width="132" height="132" viewBox="0 0 132 132" fill="none" xmlns="http://www.w3.org/2000/svg">
<g clip-path="url(#clip0_387_5428)">
<path d="M132 0H0V132H132V0Z" fill="white"/>
<path d="M12.001 8.49121H8.49219V12H12.001V8.49121Z" fill="black"/>
<path d="M15.5097 8.49121H12.001V12H15.5097V8.49121Z" fill="black"/>
<path d="M19.0185 8.49121H15.5097V12H19.0185V8.49121Z" fill="black"/>
<path d="M22.5273 8.49121H19.0185V12H22.5273V8.49121Z" fill="black"/>
<path d="M26.036 8.49121H22.5273V12H26.036V8.49121Z" fill="black"/>
<path d="M29.5448 8.49121H26.036V12H29.5448V8.49121Z" fill="black"/>
<path d="M33.0536 8.49121H29.5448V12H33.0536V8.49121Z" fill="black"/>
<path d="M40.0711 8.49121H36.5624V12H40.0711V8.49121Z" fill="black"/>
<path d="M43.5799 8.49121H40.0711V12H43.5799V8.49121Z" fill="black"/>
<path d="M50.5975 8.49121H47.0887V12H50.5975V8.49121Z" fill="black"/>
<path d="M54.1062 8.49121H50.5975V12H54.1062V8.49121Z" fill="black"/>
<path d="M78.6676 8.49121H75.1589V12H78.6676V8.49121Z" fill="black"/>
<path d="M85.6852 8.49121H82.1764V12H85.6852V8.49121Z" fill="black"/>
<path d="M96.2115 8.49121H92.7027V12H96.2115V8.49121Z" fill="black"/>
<path d="M103.229 8.49121H99.7203V12H103.229V8.49121Z" fill="black"/>
<path d="M106.738 8.49121H103.229V12H106.738V8.49121Z" fill="black"/>
<path d="M110.247 8.49121H106.738V12H110.247V8.49121Z" fill="black"/>
<path d="M113.755 8.49121H110.247V12H113.755V8.49121Z" fill="black"/>
<path d="M117.264 8.49121H113.755V12H117.264V8.49121Z" fill="black"/>
<path d="M120.773 8.49121H117.264V12H120.773V8.49121Z" fill="black"/>
<path d="M124.282 8.49121H120.773V12H124.282V8.49121Z" fill="black"/>
<path d="M12.001 12H8.49219V15.5088H12.001V12Z" fill="black"/>
<path d="M33.0536 12H29.5448V15.5088H33.0536V12Z" fill="black"/>
<path d="M43.5799 12H40.0711V15.5088H43.5799V12Z" fill="black"/>
<path d="M61.1238 12H57.615V15.5088H61.1238V12Z" fill="black"/>
<path d="M75.1589 12H71.6501V15.5088H75.1589L75.1589 12Z" fill="black"/>
<path d="M78.6676 12H75.1589L75.1589 15.5088H78.6676V12Z" fill="black"/>
<path d="M82.1764 12H78.6676V15.5088H82.1764V12Z" fill="black"/>
<path d="M85.6852 12H82.1764V15.5088H85.6852V12Z" fill="black"/>
<path d="M96.2115 12H92.7027V15.5088H96.2115V12Z" fill="black"/>
<path d="M103.229 12H99.7203V15.5088H103.229V12Z" fill="black"/>
<path d="M124.282 12H120.773V15.5088H124.282V12Z" fill="black"/>
<path d="M12.001 15.5088H8.49219V19.0175H12.001V15.5088Z" fill="black"/>
<path d="M19.0185 15.5088H15.5097V19.0175H19.0185V15.5088Z" fill="black"/>
<path d="M22.5273 15.5088H19.0185V19.0175H22.5273V15.5088Z" fill="black"/>
<path d="M26.036 15.5088H22.5273V19.0175H26.036V15.5088Z" fill="black"/>
<path d="M33.0536 15.5088H29.5448V19.0175H33.0536V15.5088Z" fill="black"/>
<path d="M43.5799 15.5088H40.0711V19.0175H43.5799V15.5088Z" fill="black"/>
<path d="M50.5975 15.5088H47.0887V19.0175H50.5975V15.5088Z" fill="black"/>
<path d="M61.1238 15.5088H57.615V19.0175H61.1238V15.5088Z" fill="black"/>
<path d="M75.1589 15.5088H71.6501V19.0175H75.1589V15.5088Z" fill="black"/>
<path d="M78.6676 15.5088H75.1589V19.0175H78.6676V15.5088Z" fill="black"/>
<path d="M92.7027 15.5088H89.1939V19.0175H92.7027V15.5088Z" fill="black"/>
<path d="M103.229 15.5088H99.7203V19.0175H103.229V15.5088Z" fill="black"/>
<path d="M110.247 15.5088H106.738V19.0175H110.247V15.5088Z" fill="black"/>
<path d="M113.755 15.5088H110.247V19.0175H113.755V15.5088Z" fill="black"/>
<path d="M117.264 15.5088H113.755V19.0175H117.264V15.5088Z" fill="black"/>
<path d="M124.282 15.5088H120.773V19.0175H124.282V15.5088Z" fill="black"/>
<path d="M12.001 19.0175H8.49219V22.5263H12.001V19.0175Z" fill="black"/>
<path d="M19.0185 19.0175H15.5097V22.5263H19.0185V19.0175Z" fill="black"/>
<path d="M22.5273 19.0175H19.0185V22.5263H22.5273V19.0175Z" fill="black"/>
<path d="M26.036 19.0175H22.5273V22.5263H26.036V19.0175Z" fill="black"/>
<path d="M33.0536 19.0175H29.5448V22.5263H33.0536V19.0175Z" fill="black"/>
<path d="M50.5975 19.0175H47.0887V22.5263H50.5975V19.0175Z" fill="black"/>
<path d="M54.1062 19.0175H50.5975V22.5263H54.1062V19.0175Z" fill="black"/>
<path d="M57.615 19.0175H54.1062V22.5263H57.615V19.0175Z" fill="black"/>
<path d="M71.6501 19.0175H68.1413V22.5263H71.6501V19.0175Z" fill="black"/>
<path d="M75.1589 19.0175H71.6501V22.5263H75.1589V19.0175Z" fill="black"/>
<path d="M78.6676 19.0175H75.1589V22.5263H78.6676V19.0175Z" fill="black"/>
<path d="M82.1764 19.0175H78.6676V22.5263H82.1764V19.0175Z" fill="black"/>
<path d="M89.1939 19.0175H85.6852V22.5263H89.1939V19.0175Z" fill="black"/>
<path d="M96.2115 19.0175H92.7027V22.5263H96.2115V19.0175Z" fill="black"/>
<path d="M103.229 19.0175H99.7203V22.5263H103.229V19.0175Z" fill="black"/>
<path d="M110.247 19.0175H106.738V22.5263H110.247V19.0175Z" fill="black"/>
<path d="M113.755 19.0175H110.247V22.5263H113.755V19.0175Z" fill="black"/>
<path d="M117.264 19.0175H113.755V22.5263H117.264V19.0175Z" fill="black"/>
<path d="M124.282 19.0175H120.773V22.5263H124.282V19.0175Z" fill="black"/>
<path d="M12.001 22.5263H8.49219V26.0351H12.001V22.5263Z" fill="black"/>
<path d="M19.0185 22.5263H15.5097V26.0351H19.0185V22.5263Z" fill="black"/>
<path d="M22.5273 22.5263H19.0185V26.0351H22.5273V22.5263Z" fill="black"/>
<path d="M26.036 22.5263H22.5273V26.0351H26.036V22.5263Z" fill="black"/>
<path d="M33.0536 22.5263H29.5448V26.0351H33.0536V22.5263Z" fill="black"/>
<path d="M40.0711 22.5263H36.5624V26.0351H40.0711V22.5263Z" fill="black"/>
<path d="M43.5799 22.5263H40.0711V26.0351H43.5799V22.5263Z" fill="black"/>
<path d="M47.0887 22.5263H43.5799V26.0351H47.0887V22.5263Z" fill="black"/>
<path d="M54.1062 22.5263H50.5975V26.0351H54.1062V22.5263Z" fill="black"/>
<path d="M61.1238 22.5263H57.615V26.0351H61.1238V22.5263Z" fill="black"/>
<path d="M64.6325 22.5263H61.1238V26.0351H64.6325V22.5263Z" fill="black"/>
<path d="M71.6501 22.5263H68.1413V26.0351H71.6501V22.5263Z" fill="black"/>
<path d="M78.6676 22.5263H75.1589L75.1589 26.0351H78.6676V22.5263Z" fill="black"/>
<path d="M82.1764 22.5263H78.6676V26.0351H82.1764V22.5263Z" fill="black"/>
<path d="M92.7027 22.5263H89.1939V26.0351H92.7027V22.5263Z" fill="black"/>
<path d="M96.2115 22.5263H92.7027V26.0351H96.2115V22.5263Z" fill="black"/>
<path d="M103.229 22.5263H99.7203V26.0351H103.229V22.5263Z" fill="black"/>
<path d="M110.247 22.5263H106.738V26.0351H110.247V22.5263Z" fill="black"/>
<path d="M113.755 22.5263H110.247V26.0351H113.755V22.5263Z" fill="black"/>
<path d="M117.264 22.5263H113.755V26.0351H117.264V22.5263Z" fill="black"/>
<path d="M124.282 22.5263H120.773V26.0351H124.282V22.5263Z" fill="black"/>
<path d="M12.001 26.0351H8.49219V29.5438H12.001V26.0351Z" fill="black"/>
<path d="M33.0536 26.0351H29.5448V29.5438H33.0536V26.0351Z" fill="black"/>
<path d="M43.5799 26.0351H40.0711V29.5438H43.5799V26.0351Z" fill="black"/>
<path d="M57.615 26.0351H54.1062V29.5438H57.615V26.0351Z" fill="black"/>
<path d="M68.1413 26.0351H64.6325V29.5438H68.1413V26.0351Z" fill="black"/>
<path d="M82.1764 26.0351H78.6676V29.5438H82.1764V26.0351Z" fill="black"/>
<path d="M85.6852 26.0351H82.1764V29.5438H85.6852V26.0351Z" fill="black"/>
<path d="M89.1939 26.0351H85.6852V29.5438H89.1939V26.0351Z" fill="black"/>
<path d="M92.7027 26.0351H89.1939V29.5438H92.7027V26.0351Z" fill="black"/>
<path d="M96.2115 26.0351H92.7027V29.5438H96.2115V26.0351Z" fill="black"/>
<path d="M103.229 26.0351H99.7203V29.5438H103.229V26.0351Z" fill="black"/>
<path d="M124.282 26.0351H120.773V29.5438H124.282V26.0351Z" fill="black"/>
<path d="M12.001 29.5438H8.49219V33.0526H12.001V29.5438Z" fill="black"/>
<path d="M15.5097 29.5438H12.001V33.0526H15.5097V29.5438Z" fill="black"/>
<path d="M19.0185 29.5438H15.5097V33.0526H19.0185V29.5438Z" fill="black"/>
<path d="M22.5273 29.5438H19.0185V33.0526H22.5273V29.5438Z" fill="black"/>
<path d="M26.036 29.5438H22.5273V33.0526H26.036V29.5438Z" fill="black"/>
<path d="M29.5448 29.5438H26.036V33.0526H29.5448V29.5438Z" fill="black"/>
<path d="M33.0536 29.5438H29.5448V33.0526H33.0536V29.5438Z" fill="black"/>
<path d="M40.0711 29.5438H36.5624V33.0526H40.0711V29.5438Z" fill="black"/>
<path d="M47.0887 29.5438H43.5799V33.0526H47.0887V29.5438Z" fill="black"/>
<path d="M54.1062 29.5438H50.5975V33.0526H54.1062V29.5438Z" fill="black"/>
<path d="M61.1238 29.5438H57.615V33.0526H61.1238V29.5438Z" fill="black"/>
<path d="M68.1413 29.5438H64.6325V33.0526H68.1413V29.5438Z" fill="black"/>
<path d="M75.1589 29.5438H71.6501V33.0526H75.1589V29.5438Z" fill="black"/>
<path d="M82.1764 29.5438H78.6676V33.0526H82.1764V29.5438Z" fill="black"/>
<path d="M89.1939 29.5438H85.6852V33.0526H89.1939V29.5438Z" fill="black"/>
<path d="M96.2115 29.5438H92.7027V33.0526H96.2115V29.5438Z" fill="black"/>
<path d="M103.229 29.5438H99.7203V33.0526H103.229V29.5438Z" fill="black"/>
<path d="M106.738 29.5438H103.229V33.0526H106.738V29.5438Z" fill="black"/>
<path d="M110.247 29.5438H106.738V33.0526H110.247V29.5438Z" fill="black"/>
<path d="M113.755 29.5438H110.247V33.0526H113.755V29.5438Z" fill="black"/>
<path d="M117.264 29.5438H113.755V33.0526H117.264V29.5438Z" fill="black"/>
<path d="M120.773 29.5438H117.264V33.0526H120.773V29.5438Z" fill="black"/>
<path d="M124.282 29.5438H120.773V33.0526H124.282V29.5438Z" fill="black"/>
<path d="M40.0711 33.0526H36.5624V36.5614H40.0711V33.0526Z" fill="black"/>
<path d="M43.5799 33.0526H40.0711V36.5614H43.5799V33.0526Z" fill="black"/>
<path d="M47.0887 33.0526H43.5799V36.5614H47.0887V33.0526Z" fill="black"/>
<path d="M57.615 33.0526H54.1062V36.5614H57.615V33.0526Z" fill="black"/>
<path d="M64.6325 33.0526H61.1238V36.5614H64.6325V33.0526Z" fill="black"/>
<path d="M71.6501 33.0526H68.1413V36.5614H71.6501V33.0526Z" fill="black"/>
<path d="M75.1589 33.0526H71.6501V36.5614H75.1589V33.0526Z" fill="black"/>
<path d="M82.1764 33.0526H78.6676V36.5614H82.1764V33.0526Z" fill="black"/>
<path d="M85.6852 33.0526H82.1764V36.5614H85.6852V33.0526Z" fill="black"/>
<path d="M89.1939 33.0526H85.6852V36.5614H89.1939V33.0526Z" fill="black"/>
<path d="M96.2115 33.0526H92.7027V36.5614H96.2115V33.0526Z" fill="black"/>
<path d="M12.001 36.5614H8.49219V40.0702H12.001V36.5614Z" fill="black"/>
<path d="M22.5273 36.5614H19.0185V40.0702H22.5273V36.5614Z" fill="black"/>
<path d="M26.036 36.5614H22.5273V40.0702H26.036V36.5614Z" fill="black"/>
<path d="M29.5448 36.5614H26.036V40.0702H29.5448V36.5614Z" fill="black"/>
<path d="M33.0536 36.5614H29.5448V40.0702H33.0536V36.5614Z" fill="black"/>
<path d="M36.5624 36.5614H33.0536V40.0702H36.5624V36.5614Z" fill="black"/>
<path d="M40.0711 36.5614H36.5624V40.0702H40.0711V36.5614Z" fill="black"/>
<path d="M47.0887 36.5614H43.5799V40.0702H47.0887V36.5614Z" fill="black"/>
<path d="M96.2115 36.5614H92.7027V40.0702H96.2115V36.5614Z" fill="black"/>
<path d="M99.7203 36.5614H96.2115V40.0702H99.7203V36.5614Z" fill="black"/>
<path d="M103.229 36.5614H99.7203V40.0702H103.229V36.5614Z" fill="black"/>
<path d="M110.247 36.5614H106.738V40.0702H110.247V36.5614Z" fill="black"/>
<path d="M124.282 36.5614H120.773V40.0702H124.282V36.5614Z" fill="black"/>
<path d="M12.001 40.0702H8.49219V43.5789H12.001V40.0702Z" fill="black"/>
<path d="M19.0185 40.0702H15.5097V43.5789H19.0185V40.0702Z" fill="black"/>
<path d="M22.5273 40.0702H19.0185V43.5789H22.5273V40.0702Z" fill="black"/>
<path d="M26.036 40.0702H22.5273V43.5789H26.036V40.0702Z" fill="black"/>
<path d="M36.5624 40.0702H33.0536V43.5789H36.5624V40.0702Z" fill="black"/>
<path d="M43.5799 40.0702H40.0711V43.5789H43.5799V40.0702Z" fill="black"/>
<path d="M47.0887 40.0702H43.5799V43.5789H47.0887V40.0702Z" fill="black"/>
<path d="M50.5975 40.0702H47.0887V43.5789H50.5975V40.0702Z" fill="black"/>
<path d="M57.615 40.0702H54.1062V43.5789H57.615V40.0702Z" fill="black"/>
<path d="M64.6325 40.0702H61.1238V43.5789H64.6325V40.0702Z" fill="black"/>
<path d="M68.1413 40.0702H64.6325V43.5789H68.1413V40.0702Z" fill="black"/>
<path d="M71.6501 40.0702H68.1413V43.5789H71.6501V40.0702Z" fill="black"/>
<path d="M75.1589 40.0702H71.6501V43.5789H75.1589V40.0702Z" fill="black"/>
<path d="M82.1764 40.0702H78.6676V43.5789H82.1764V40.0702Z" fill="black"/>
<path d="M85.6852 40.0702H82.1764V43.5789H85.6852V40.0702Z" fill="black"/>
<path d="M89.1939 40.0702H85.6852V43.5789H89.1939V40.0702Z" fill="black"/>
<path d="M99.7203 40.0702H96.2115V43.5789H99.7203V40.0702Z" fill="black"/>
<path d="M106.738 40.0702H103.229V43.5789H106.738V40.0702Z" fill="black"/>
<path d="M110.247 40.0702H106.738V43.5789H110.247V40.0702Z" fill="black"/>
<path d="M117.264 40.0702H113.755V43.5789H117.264V40.0702Z" fill="black"/>
<path d="M120.773 40.0702H117.264V43.5789H120.773V40.0702Z" fill="black"/>
<path d="M124.282 40.0702H120.773V43.5789H124.282V40.0702Z" fill="black"/>
<path d="M12.001 43.5789H8.49219V47.0877H12.001V43.5789Z" fill="black"/>
<path d="M15.5097 43.5789H12.001V47.0877H15.5097V43.5789Z" fill="black"/>
<path d="M22.5273 43.5789H19.0185V47.0877H22.5273V43.5789Z" fill="black"/>
<path d="M29.5448 43.5789H26.036V47.0877H29.5448V43.5789Z" fill="black"/>
<path d="M33.0536 43.5789H29.5448V47.0877H33.0536V43.5789Z" fill="black"/>
<path d="M40.0711 43.5789H36.5624V47.0877H40.0711V43.5789Z" fill="black"/>
<path d="M47.0887 43.5789H43.5799V47.0877H47.0887V43.5789Z" fill="black"/>
<path d="M54.1062 43.5789H50.5975V47.0877H54.1062V43.5789Z" fill="black"/>
<path d="M57.615 43.5789H54.1062V47.0877H57.615V43.5789Z" fill="black"/>
<path d="M61.1238 43.5789H57.615V47.0877H61.1238V43.5789Z" fill="black"/>
<path d="M75.1589 43.5789H71.6501V47.0877H75.1589V43.5789Z" fill="black"/>
<path d="M78.6676 43.5789H75.1589V47.0877H78.6676V43.5789Z" fill="black"/>
<path d="M82.1764 43.5789H78.6676V47.0877H82.1764V43.5789Z" fill="black"/>
<path d="M85.6852 43.5789H82.1764V47.0877H85.6852V43.5789Z" fill="black"/>
<path d="M89.1939 43.5789H85.6852V47.0877H89.1939V43.5789Z" fill="black"/>
<path d="M99.7203 43.5789H96.2115V47.0877H99.7203V43.5789Z" fill="black"/>
<path d="M103.229 43.5789H99.7203V47.0877H103.229V43.5789Z" fill="black"/>
<path d="M113.755 43.5789H110.247V47.0877H113.755V43.5789Z" fill="black"/>
<path d="M120.773 43.5789H117.264V47.0877H120.773V43.5789Z" fill="black"/>
<path d="M12.001 47.0877H8.49219V50.5965H12.001V47.0877Z" fill="black"/>
<path d="M26.036 47.0877H22.5273V50.5965H26.036V47.0877Z" fill="black"/>
<path d="M29.5448 47.0877H26.036V50.5965H29.5448V47.0877Z" fill="black"/>
<path d="M36.5624 47.0877H33.0536V50.5965H36.5624V47.0877Z" fill="black"/>
<path d="M40.0711 47.0877H36.5624V50.5965H40.0711V47.0877Z" fill="black"/>
<path d="M50.5975 47.0877H47.0887V50.5965H50.5975V47.0877Z" fill="black"/>
<path d="M57.615 47.0877H54.1062V50.5965H57.615V47.0877Z" fill="black"/>
<path d="M64.6325 47.0877H61.1238V50.5965H64.6325V47.0877Z" fill="black"/>
<path d="M68.1413 47.0877H64.6325V50.5965H68.1413V47.0877Z" fill="black"/>
<path d="M71.6501 47.0877H68.1413V50.5965H71.6501V47.0877Z" fill="black"/>
<path d="M78.6676 47.0877H75.1589L75.1589 50.5965H78.6676V47.0877Z" fill="black"/>
<path d="M92.7027 47.0877H89.1939V50.5965H92.7027V47.0877Z" fill="black"/>
<path d="M96.2115 47.0877H92.7027V50.5965H96.2115V47.0877Z" fill="black"/>
<path d="M99.7203 47.0877H96.2115V50.5965H99.7203V47.0877Z" fill="black"/>
<path d="M103.229 47.0877H99.7203V50.5965H103.229V47.0877Z" fill="black"/>
<path d="M106.738 47.0877H103.229V50.5965H106.738V47.0877Z" fill="black"/>
<path d="M110.247 47.0877H106.738V50.5965H110.247V47.0877Z" fill="black"/>
<path d="M117.264 47.0877H113.755V50.5965H117.264V47.0877Z" fill="black"/>
<path d="M12.001 50.5965H8.49219V54.1052H12.001V50.5965Z" fill="black"/>
<path d="M15.5097 50.5965H12.001V54.1052H15.5097V50.5965Z" fill="black"/>
<path d="M19.0185 50.5965H15.5097V54.1052H19.0185V50.5965Z" fill="black"/>
<path d="M29.5448 50.5965H26.036V54.1052H29.5448V50.5965Z" fill="black"/>
<path d="M33.0536 50.5965H29.5448V54.1052H33.0536V50.5965Z" fill="black"/>
<path d="M40.0711 50.5965H36.5624V54.1052H40.0711V50.5965Z" fill="black"/>
<path d="M47.0887 50.5965H43.5799V54.1052H47.0887V50.5965Z" fill="black"/>
<path d="M54.1062 50.5965H50.5975V54.1052H54.1062V50.5965Z" fill="black"/>
<path d="M61.1238 50.5965H57.615V54.1052H61.1238V50.5965Z" fill="black"/>
<path d="M68.1413 50.5965H64.6325V54.1052H68.1413V50.5965Z" fill="black"/>
<path d="M78.6676 50.5965H75.1589V54.1052H78.6676V50.5965Z" fill="black"/>
<path d="M92.7027 50.5965H89.1939V54.1052H92.7027V50.5965Z" fill="black"/>
<path d="M103.229 50.5965H99.7203V54.1052H103.229V50.5965Z" fill="black"/>
<path d="M106.738 50.5965H103.229V54.1052H106.738V50.5965Z" fill="black"/>
<path d="M117.264 50.5965H113.755V54.1052H117.264V50.5965Z" fill="black"/>
<path d="M19.0185 54.1052H15.5097V57.614H19.0185V54.1052Z" fill="black"/>
<path d="M29.5448 54.1052H26.036V57.614H29.5448V54.1052Z" fill="black"/>
<path d="M43.5799 54.1052H40.0711V57.614H43.5799V54.1052Z" fill="black"/>
<path d="M54.1062 54.1052H50.5975V57.614H54.1062V54.1052Z" fill="black"/>
<path d="M57.615 54.1052H54.1062V57.614H57.615V54.1052Z" fill="black"/>
<path d="M64.6325 54.1052H61.1238V57.614H64.6325V54.1052Z" fill="black"/>
<path d="M71.6501 54.1052H68.1413V57.614H71.6501V54.1052Z" fill="black"/>
<path d="M78.6676 54.1052H75.1589V57.614H78.6676V54.1052Z" fill="black"/>
<path d="M82.1764 54.1052H78.6676V57.614H82.1764V54.1052Z" fill="black"/>
<path d="M92.7027 54.1052H89.1939V57.614H92.7027V54.1052Z" fill="black"/>
<path d="M106.738 54.1052H103.229V57.614H106.738V54.1052Z" fill="black"/>
<path d="M110.247 54.1052H106.738V57.614H110.247V54.1052Z" fill="black"/>
<path d="M124.282 54.1052H120.773V57.614H124.282V54.1052Z" fill="black"/>
<path d="M12.001 57.614H8.49219V61.1228H12.001V57.614Z" fill="black"/>
<path d="M22.5273 57.614H19.0185V61.1228H22.5273V57.614Z" fill="black"/>
<path d="M26.036 57.614H22.5273V61.1228H26.036V57.614Z" fill="black"/>
<path d="M33.0536 57.614H29.5448V61.1228H33.0536V57.614Z" fill="black"/>
<path d="M36.5624 57.614H33.0536V61.1228H36.5624V57.614Z" fill="black"/>
<path d="M43.5799 57.614H40.0711V61.1228H43.5799V57.614Z" fill="black"/>
<path d="M50.5975 57.614H47.0887V61.1228H50.5975V57.614Z" fill="black"/>
<path d="M54.1062 57.614H50.5975V61.1228H54.1062V57.614Z" fill="black"/>
<path d="M71.6501 57.614H68.1413V61.1228H71.6501V57.614Z" fill="black"/>
<path d="M85.6852 57.614H82.1764V61.1228H85.6852V57.614Z" fill="black"/>
<path d="M106.738 57.614H103.229V61.1228H106.738V57.614Z" fill="black"/>
<path d="M12.001 61.1228H8.49219V64.6316H12.001V61.1228Z" fill="black"/>
<path d="M22.5273 61.1228H19.0185V64.6316H22.5273V61.1228Z" fill="black"/>
<path d="M36.5624 61.1228H33.0536V64.6316H36.5624V61.1228Z" fill="black"/>
<path d="M43.5799 61.1228H40.0711V64.6316H43.5799V61.1228Z" fill="black"/>
<path d="M47.0887 61.1228H43.5799V64.6316H47.0887V61.1228Z" fill="black"/>
<path d="M54.1062 61.1228H50.5975V64.6316H54.1062V61.1228Z" fill="black"/>
<path d="M68.1413 61.1228H64.6325V64.6316H68.1413V61.1228Z" fill="black"/>
<path d="M71.6501 61.1228H68.1413V64.6316H71.6501V61.1228Z" fill="black"/>
<path d="M75.1589 61.1228H71.6501V64.6316H75.1589V61.1228Z" fill="black"/>
<path d="M82.1764 61.1228H78.6676V64.6316H82.1764V61.1228Z" fill="black"/>
<path d="M89.1939 61.1228H85.6852V64.6316H89.1939V61.1228Z" fill="black"/>
<path d="M92.7027 61.1228H89.1939V64.6316H92.7027V61.1228Z" fill="black"/>
<path d="M99.7203 61.1228H96.2115V64.6316H99.7203V61.1228Z" fill="black"/>
<path d="M103.229 61.1228H99.7203V64.6316H103.229V61.1228Z" fill="black"/>
<path d="M110.247 61.1228H106.738V64.6316H110.247V61.1228Z" fill="black"/>
<path d="M124.282 61.1228H120.773V64.6316H124.282V61.1228Z" fill="black"/>
<path d="M12.001 64.6316H8.49219V68.1403H12.001V64.6316Z" fill="black"/>
<path d="M15.5097 64.6316H12.001V68.1403H15.5097V64.6316Z" fill="black"/>
<path d="M19.0185 64.6316H15.5097V68.1403H19.0185V64.6316Z" fill="black"/>
<path d="M29.5448 64.6316H26.036V68.1403H29.5448V64.6316Z" fill="black"/>
<path d="M33.0536 64.6316H29.5448V68.1403H33.0536V64.6316Z" fill="black"/>
<path d="M36.5624 64.6316H33.0536V68.1403H36.5624V64.6316Z" fill="black"/>
<path d="M40.0711 64.6316H36.5624V68.1403H40.0711V64.6316Z" fill="black"/>
<path d="M43.5799 64.6316H40.0711V68.1403H43.5799V64.6316Z" fill="black"/>
<path d="M57.615 64.6316H54.1062V68.1403H57.615V64.6316Z" fill="black"/>
<path d="M61.1238 64.6316H57.615V68.1403H61.1238V64.6316Z" fill="black"/>
<path d="M71.6501 64.6316H68.1413V68.1403H71.6501V64.6316Z" fill="black"/>
<path d="M78.6676 64.6316H75.1589L75.1589 68.1403H78.6676V64.6316Z" fill="black"/>
<path d="M82.1764 64.6316H78.6676V68.1403H82.1764V64.6316Z" fill="black"/>
<path d="M92.7027 64.6316H89.1939V68.1403H92.7027V64.6316Z" fill="black"/>
<path d="M99.7203 64.6316H96.2115V68.1403H99.7203V64.6316Z" fill="black"/>
<path d="M113.755 64.6316H110.247V68.1403H113.755V64.6316Z" fill="black"/>
<path d="M117.264 64.6316H113.755V68.1403H117.264V64.6316Z" fill="black"/>
<path d="M12.001 68.1403H8.49219V71.6491H12.001V68.1403Z" fill="black"/>
<path d="M15.5097 68.1403H12.001V71.6491H15.5097V68.1403Z" fill="black"/>
<path d="M22.5273 68.1403H19.0185V71.6491H22.5273V68.1403Z" fill="black"/>
<path d="M26.036 68.1403H22.5273V71.6491H26.036V68.1403Z" fill="black"/>
<path d="M29.5448 68.1403H26.036V71.6491H29.5448V68.1403Z" fill="black"/>
<path d="M36.5624 68.1403H33.0536V71.6491H36.5624V68.1403Z" fill="black"/>
<path d="M40.0711 68.1403H36.5624V71.6491H40.0711V68.1403Z" fill="black"/>
<path d="M47.0887 68.1403H43.5799V71.6491H47.0887V68.1403Z" fill="black"/>
<path d="M50.5975 68.1403H47.0887V71.6491H50.5975V68.1403Z" fill="black"/>
<path d="M64.6325 68.1403H61.1238V71.6491H64.6325V68.1403Z" fill="black"/>
<path d="M68.1413 68.1403H64.6325V71.6491H68.1413V68.1403Z" fill="black"/>
<path d="M71.6501 68.1403H68.1413V71.6491H71.6501V68.1403Z" fill="black"/>
<path d="M85.6852 68.1403H82.1764V71.6491H85.6852V68.1403Z" fill="black"/>
<path d="M92.7027 68.1403H89.1939V71.6491H92.7027V68.1403Z" fill="black"/>
<path d="M96.2115 68.1403H92.7027V71.6491H96.2115V68.1403Z" fill="black"/>
<path d="M103.229 68.1403H99.7203V71.6491H103.229V68.1403Z" fill="black"/>
<path d="M106.738 68.1403H103.229V71.6491H106.738V68.1403Z" fill="black"/>
<path d="M113.755 68.1403H110.247V71.6491H113.755V68.1403Z" fill="black"/>
<path d="M117.264 68.1403H113.755V71.6491H117.264V68.1403Z" fill="black"/>
<path d="M120.773 68.1403H117.264V71.6491H120.773V68.1403Z" fill="black"/>
<path d="M124.282 68.1403H120.773V71.6491H124.282V68.1403Z" fill="black"/>
<path d="M12.001 71.6491H8.49219V75.1579H12.001V71.6491Z" fill="black"/>
<path d="M22.5273 71.6491H19.0185V75.1579H22.5273V71.6491Z" fill="black"/>
<path d="M26.036 71.6491H22.5273V75.1579H26.036V71.6491Z" fill="black"/>
<path d="M33.0536 71.6491H29.5448V75.1579H33.0536V71.6491Z" fill="black"/>
<path d="M43.5799 71.6491H40.0711V75.1579H43.5799V71.6491Z" fill="black"/>
<path d="M50.5975 71.6491H47.0887V75.1579H50.5975V71.6491Z" fill="black"/>
<path d="M54.1062 71.6491H50.5975V75.1579H54.1062V71.6491Z" fill="black"/>
<path d="M64.6325 71.6491H61.1238V75.1579H64.6325V71.6491Z" fill="black"/>
<path d="M71.6501 71.6491H68.1413V75.1579H71.6501V71.6491Z" fill="black"/>
<path d="M75.1589 71.6491H71.6501V75.1579H75.1589V71.6491Z" fill="black"/>
<path d="M85.6852 71.6491H82.1764V75.1579H85.6852V71.6491Z" fill="black"/>
<path d="M89.1939 71.6491H85.6852V75.1579H89.1939V71.6491Z" fill="black"/>
<path d="M92.7027 71.6491H89.1939V75.1579H92.7027V71.6491Z" fill="black"/>
<path d="M99.7203 71.6491H96.2115V75.1579H99.7203V71.6491Z" fill="black"/>
<path d="M106.738 71.6491H103.229V75.1579H106.738V71.6491Z" fill="black"/>
<path d="M110.247 71.6491H106.738V75.1579H110.247V71.6491Z" fill="black"/>
<path d="M117.264 71.6491H113.755V75.1579H117.264V71.6491Z" fill="black"/>
<path d="M120.773 71.6491H117.264V75.1579H120.773V71.6491Z" fill="black"/>
<path d="M124.282 71.6491H120.773V75.1579H124.282V71.6491Z" fill="black"/>
<path d="M15.5097 75.1579L12.001 75.1579V78.6666H15.5097V75.1579Z" fill="black"/>
<path d="M22.5273 75.1579H19.0185V78.6666H22.5273V75.1579Z" fill="black"/>
<path d="M26.036 75.1579H22.5273V78.6666H26.036V75.1579Z" fill="black"/>
<path d="M29.5448 75.1579H26.036V78.6666H29.5448V75.1579Z" fill="black"/>
<path d="M40.0711 75.1579L36.5624 75.1579V78.6666H40.0711V75.1579Z" fill="black"/>
<path d="M54.1062 75.1579H50.5975V78.6666H54.1062V75.1579Z" fill="black"/>
<path d="M57.615 75.1579L54.1062 75.1579V78.6666H57.615V75.1579Z" fill="black"/>
<path d="M61.1238 75.1579L57.615 75.1579V78.6666H61.1238V75.1579Z" fill="black"/>
<path d="M64.6325 75.1579H61.1238V78.6666H64.6325V75.1579Z" fill="black"/>
<path d="M78.6676 75.1579L75.1589 75.1579L75.1589 78.6666H78.6676V75.1579Z" fill="black"/>
<path d="M82.1764 75.1579L78.6676 75.1579V78.6666H82.1764V75.1579Z" fill="black"/>
<path d="M85.6852 75.1579H82.1764V78.6666H85.6852V75.1579Z" fill="black"/>
<path d="M96.2115 75.1579H92.7027V78.6666H96.2115V75.1579Z" fill="black"/>
<path d="M106.738 75.1579H103.229V78.6666H106.738V75.1579Z" fill="black"/>
<path d="M110.247 75.1579H106.738V78.6666H110.247V75.1579Z" fill="black"/>
<path d="M113.755 75.1579H110.247V78.6666H113.755V75.1579Z" fill="black"/>
<path d="M117.264 75.1579H113.755V78.6666H117.264V75.1579Z" fill="black"/>
<path d="M120.773 75.1579H117.264V78.6666H120.773V75.1579Z" fill="black"/>
<path d="M12.001 78.6666H8.49219V82.1754H12.001V78.6666Z" fill="black"/>
<path d="M19.0185 78.6666H15.5097V82.1754H19.0185V78.6666Z" fill="black"/>
<path d="M22.5273 78.6666H19.0185V82.1754H22.5273V78.6666Z" fill="black"/>
<path d="M26.036 78.6666H22.5273V82.1754H26.036V78.6666Z" fill="black"/>
<path d="M33.0536 78.6666H29.5448V82.1754H33.0536V78.6666Z" fill="black"/>
<path d="M40.0711 78.6666H36.5624V82.1754H40.0711V78.6666Z" fill="black"/>
<path d="M47.0887 78.6666H43.5799V82.1754H47.0887V78.6666Z" fill="black"/>
<path d="M54.1062 78.6666H50.5975V82.1754H54.1062V78.6666Z" fill="black"/>
<path d="M64.6325 78.6666H61.1238V82.1754H64.6325V78.6666Z" fill="black"/>
<path d="M68.1413 78.6666H64.6325V82.1754H68.1413V78.6666Z" fill="black"/>
<path d="M85.6852 78.6666H82.1764V82.1754H85.6852V78.6666Z" fill="black"/>
<path d="M89.1939 78.6666H85.6852V82.1754H89.1939V78.6666Z" fill="black"/>
<path d="M103.229 78.6666H99.7203V82.1754H103.229V78.6666Z" fill="black"/>
<path d="M106.738 78.6666H103.229V82.1754H106.738V78.6666Z" fill="black"/>
<path d="M110.247 78.6666H106.738V82.1754H110.247V78.6666Z" fill="black"/>
<path d="M120.773 78.6666H117.264V82.1754H120.773V78.6666Z" fill="black"/>
<path d="M124.282 78.6666H120.773V82.1754H124.282V78.6666Z" fill="black"/>
<path d="M12.001 82.1754H8.49219V85.6842H12.001V82.1754Z" fill="black"/>
<path d="M15.5097 82.1754H12.001V85.6842H15.5097V82.1754Z" fill="black"/>
<path d="M19.0185 82.1754H15.5097V85.6842H19.0185V82.1754Z" fill="black"/>
<path d="M26.036 82.1754H22.5273V85.6842H26.036V82.1754Z" fill="black"/>
<path d="M29.5448 82.1754H26.036V85.6842H29.5448V82.1754Z" fill="black"/>
<path d="M36.5624 82.1754H33.0536V85.6842H36.5624V82.1754Z" fill="black"/>
<path d="M40.0711 82.1754H36.5624V85.6842H40.0711V82.1754Z" fill="black"/>
<path d="M47.0887 82.1754H43.5799V85.6842H47.0887V82.1754Z" fill="black"/>
<path d="M50.5975 82.1754H47.0887V85.6842H50.5975V82.1754Z" fill="black"/>
<path d="M54.1062 82.1754H50.5975V85.6842H54.1062V82.1754Z" fill="black"/>
<path d="M64.6325 82.1754H61.1238V85.6842H64.6325V82.1754Z" fill="black"/>
<path d="M68.1413 82.1754H64.6325V85.6842H68.1413V82.1754Z" fill="black"/>
<path d="M78.6676 82.1754H75.1589V85.6842H78.6676V82.1754Z" fill="black"/>
<path d="M82.1764 82.1754H78.6676V85.6842H82.1764V82.1754Z" fill="black"/>
<path d="M89.1939 82.1754H85.6852V85.6842H89.1939V82.1754Z" fill="black"/>
<path d="M92.7027 82.1754H89.1939V85.6842H92.7027V82.1754Z" fill="black"/>
<path d="M96.2115 82.1754H92.7027V85.6842H96.2115V82.1754Z" fill="black"/>
<path d="M99.7203 82.1754H96.2115V85.6842H99.7203V82.1754Z" fill="black"/>
<path d="M106.738 82.1754H103.229V85.6842H106.738V82.1754Z" fill="black"/>
<path d="M117.264 82.1754H113.755V85.6842H117.264V82.1754Z" fill="black"/>
<path d="M120.773 82.1754H117.264V85.6842H120.773V82.1754Z" fill="black"/>
<path d="M124.282 82.1754H120.773V85.6842H124.282V82.1754Z" fill="black"/>
<path d="M15.5097 85.6842H12.001V89.193H15.5097V85.6842Z" fill="black"/>
<path d="M19.0185 85.6842H15.5097V89.193H19.0185V85.6842Z" fill="black"/>
<path d="M29.5448 85.6842H26.036V89.193H29.5448V85.6842Z" fill="black"/>
<path d="M33.0536 85.6842H29.5448V89.193H33.0536V85.6842Z" fill="black"/>
<path d="M36.5624 85.6842H33.0536V89.193H36.5624V85.6842Z" fill="black"/>
<path d="M40.0711 85.6842H36.5624V89.193H40.0711V85.6842Z" fill="black"/>
<path d="M43.5799 85.6842H40.0711V89.193H43.5799V85.6842Z" fill="black"/>
<path d="M54.1062 85.6842H50.5975V89.193H54.1062V85.6842Z" fill="black"/>
<path d="M61.1238 85.6842H57.615V89.193H61.1238V85.6842Z" fill="black"/>
<path d="M68.1413 85.6842H64.6325V89.193H68.1413V85.6842Z" fill="black"/>
<path d="M71.6501 85.6842H68.1413V89.193H71.6501V85.6842Z" fill="black"/>
<path d="M92.7027 85.6842H89.1939V89.193H92.7027V85.6842Z" fill="black"/>
<path d="M96.2115 85.6842H92.7027V89.193H96.2115V85.6842Z" fill="black"/>
<path d="M117.264 85.6842H113.755V89.193H117.264V85.6842Z" fill="black"/>
<path d="M124.282 85.6842H120.773V89.193H124.282V85.6842Z" fill="black"/>
<path d="M12.001 89.193H8.49219V92.7017H12.001V89.193Z" fill="black"/>
<path d="M19.0185 89.193H15.5097V92.7017H19.0185V89.193Z" fill="black"/>
<path d="M26.036 89.193H22.5273V92.7017H26.036V89.193Z" fill="black"/>
<path d="M43.5799 89.193H40.0711V92.7017H43.5799V89.193Z" fill="black"/>
<path d="M47.0887 89.193H43.5799V92.7017H47.0887V89.193Z" fill="black"/>
<path d="M54.1062 89.193H50.5975V92.7017H54.1062V89.193Z" fill="black"/>
<path d="M57.615 89.193H54.1062V92.7017H57.615V89.193Z" fill="black"/>
<path d="M61.1238 89.193H57.615V92.7017H61.1238V89.193Z" fill="black"/>
<path d="M68.1413 89.193H64.6325V92.7017H68.1413V89.193Z" fill="black"/>
<path d="M71.6501 89.193H68.1413V92.7017H71.6501V89.193Z" fill="black"/>
<path d="M75.1589 89.193H71.6501V92.7017H75.1589V89.193Z" fill="black"/>
<path d="M89.1939 89.193H85.6852V92.7017H89.1939V89.193Z" fill="black"/>
<path d="M92.7027 89.193H89.1939V92.7017H92.7027V89.193Z" fill="black"/>
<path d="M99.7203 89.193H96.2115V92.7017H99.7203V89.193Z" fill="black"/>
<path d="M113.755 89.193H110.247V92.7017H113.755V89.193Z" fill="black"/>
<path d="M120.773 89.193H117.264V92.7017H120.773V89.193Z" fill="black"/>
<path d="M124.282 89.193H120.773V92.7017H124.282V89.193Z" fill="black"/>
<path d="M33.0536 92.7017H29.5448V96.2105H33.0536V92.7017Z" fill="black"/>
<path d="M40.0711 92.7017H36.5624V96.2105H40.0711V92.7017Z" fill="black"/>
<path d="M50.5975 92.7017H47.0887V96.2105H50.5975V92.7017Z" fill="black"/>
<path d="M61.1238 92.7017H57.615V96.2105H61.1238V92.7017Z" fill="black"/>
<path d="M64.6325 92.7017H61.1238V96.2105H64.6325V92.7017Z" fill="black"/>
<path d="M68.1413 92.7017H64.6325V96.2105H68.1413V92.7017Z" fill="black"/>
<path d="M71.6501 92.7017H68.1413V96.2105H71.6501V92.7017Z" fill="black"/>
<path d="M75.1589 92.7017H71.6501V96.2105H75.1589V92.7017Z" fill="black"/>
<path d="M78.6676 92.7017H75.1589V96.2105H78.6676V92.7017Z" fill="black"/>
<path d="M89.1939 92.7017H85.6852V96.2105H89.1939V92.7017Z" fill="black"/>
<path d="M96.2115 92.7017H92.7027V96.2105H96.2115V92.7017Z" fill="black"/>
<path d="M99.7203 92.7017H96.2115V96.2105H99.7203V92.7017Z" fill="black"/>
<path d="M103.229 92.7017H99.7203V96.2105H103.229V92.7017Z" fill="black"/>
<path d="M106.738 92.7017H103.229V96.2105H106.738V92.7017Z" fill="black"/>
<path d="M110.247 92.7017H106.738V96.2105H110.247V92.7017Z" fill="black"/>
<path d="M120.773 92.7017H117.264V96.2105H120.773V92.7017Z" fill="black"/>
<path d="M124.282 92.7017H120.773V96.2105H124.282V92.7017Z" fill="black"/>
<path d="M40.0711 96.2105H36.5624V99.7193H40.0711V96.2105Z" fill="black"/>
<path d="M43.5799 96.2105H40.0711V99.7193H43.5799V96.2105Z" fill="black"/>
<path d="M47.0887 96.2105H43.5799V99.7193H47.0887V96.2105Z" fill="black"/>
<path d="M57.615 96.2105H54.1062V99.7193H57.615V96.2105Z" fill="black"/>
<path d="M61.1238 96.2105H57.615V99.7193H61.1238V96.2105Z" fill="black"/>
<path d="M64.6325 96.2105H61.1238V99.7193H64.6325V96.2105Z" fill="black"/>
<path d="M75.1589 96.2105H71.6501V99.7193H75.1589V96.2105Z" fill="black"/>
<path d="M78.6676 96.2105H75.1589V99.7193H78.6676V96.2105Z" fill="black"/>
<path d="M85.6852 96.2105H82.1764V99.7193H85.6852V96.2105Z" fill="black"/>
<path d="M89.1939 96.2105H85.6852V99.7193H89.1939V96.2105Z" fill="black"/>
<path d="M92.7027 96.2105H89.1939V99.7193H92.7027V96.2105Z" fill="black"/>
<path d="M96.2115 96.2105H92.7027V99.7193H96.2115V96.2105Z" fill="black"/>
<path d="M110.247 96.2105H106.738V99.7193H110.247V96.2105Z" fill="black"/>
<path d="M117.264 96.2105H113.755V99.7193H117.264V96.2105Z" fill="black"/>
<path d="M120.773 96.2105H117.264V99.7193H120.773V96.2105Z" fill="black"/>
<path d="M124.282 96.2105H120.773V99.7193H124.282V96.2105Z" fill="black"/>
<path d="M12.001 99.7193H8.49219V103.228H12.001V99.7193Z" fill="black"/>
<path d="M15.5097 99.7193H12.001V103.228H15.5097V99.7193Z" fill="black"/>
<path d="M19.0185 99.7193H15.5097V103.228H19.0185V99.7193Z" fill="black"/>
<path d="M22.5273 99.7193H19.0185V103.228H22.5273V99.7193Z" fill="black"/>
<path d="M26.036 99.7193H22.5273V103.228H26.036V99.7193Z" fill="black"/>
<path d="M29.5448 99.7193H26.036V103.228H29.5448V99.7193Z" fill="black"/>
<path d="M33.0536 99.7193H29.5448V103.228H33.0536V99.7193Z" fill="black"/>
<path d="M40.0711 99.7193H36.5624V103.228H40.0711V99.7193Z" fill="black"/>
<path d="M47.0887 99.7193H43.5799V103.228H47.0887V99.7193Z" fill="black"/>
<path d="M54.1062 99.7193H50.5975V103.228H54.1062V99.7193Z" fill="black"/>
<path d="M61.1238 99.7193H57.615V103.228H61.1238V99.7193Z" fill="black"/>
<path d="M64.6325 99.7193H61.1238V103.228H64.6325V99.7193Z" fill="black"/>
<path d="M68.1413 99.7193H64.6325V103.228H68.1413V99.7193Z" fill="black"/>
<path d="M82.1764 99.7193H78.6676V103.228H82.1764V99.7193Z" fill="black"/>
<path d="M92.7027 99.7193H89.1939V103.228H92.7027V99.7193Z" fill="black"/>
<path d="M96.2115 99.7193H92.7027V103.228H96.2115V99.7193Z" fill="black"/>
<path d="M103.229 99.7193H99.7203V103.228H103.229V99.7193Z" fill="black"/>
<path d="M110.247 99.7193H106.738V103.228H110.247V99.7193Z" fill="black"/>
<path d="M113.755 99.7193H110.247V103.228H113.755V99.7193Z" fill="black"/>
<path d="M117.264 99.7193H113.755V103.228H117.264V99.7193Z" fill="black"/>
<path d="M120.773 99.7193H117.264V103.228H120.773V99.7193Z" fill="black"/>
<path d="M12.001 103.228H8.49219V106.737H12.001V103.228Z" fill="black"/>
<path d="M33.0536 103.228H29.5448V106.737H33.0536V103.228Z" fill="black"/>
<path d="M40.0711 103.228H36.5624V106.737H40.0711V103.228Z" fill="black"/>
<path d="M57.615 103.228H54.1062V106.737H57.615V103.228Z" fill="black"/>
<path d="M75.1589 103.228H71.6501V106.737H75.1589V103.228Z" fill="black"/>
<path d="M78.6676 103.228H75.1589V106.737H78.6676V103.228Z" fill="black"/>
<path d="M85.6852 103.228H82.1764V106.737H85.6852V103.228Z" fill="black"/>
<path d="M96.2115 103.228H92.7027V106.737H96.2115V103.228Z" fill="black"/>
<path d="M110.247 103.228H106.738V106.737H110.247V103.228Z" fill="black"/>
<path d="M113.755 103.228H110.247V106.737H113.755V103.228Z" fill="black"/>
<path d="M117.264 103.228H113.755V106.737H117.264V103.228Z" fill="black"/>
<path d="M12.001 106.737H8.49219V110.246H12.001V106.737Z" fill="black"/>
<path d="M19.0185 106.737H15.5097V110.246H19.0185V106.737Z" fill="black"/>
<path d="M22.5273 106.737H19.0185V110.246H22.5273V106.737Z" fill="black"/>
<path d="M26.036 106.737H22.5273V110.246H26.036V106.737Z" fill="black"/>
<path d="M33.0536 106.737H29.5448V110.246H33.0536V106.737Z" fill="black"/>
<path d="M40.0711 106.737H36.5624V110.246H40.0711V106.737Z" fill="black"/>
<path d="M54.1062 106.737H50.5975V110.246H54.1062V106.737Z" fill="black"/>
<path d="M61.1238 106.737H57.615V110.246H61.1238V106.737Z" fill="black"/>
<path d="M64.6325 106.737H61.1238V110.246H64.6325V106.737Z" fill="black"/>
<path d="M68.1413 106.737H64.6325V110.246H68.1413V106.737Z" fill="black"/>
<path d="M82.1764 106.737H78.6676V110.246H82.1764V106.737Z" fill="black"/>
<path d="M96.2115 106.737H92.7027V110.246H96.2115V106.737Z" fill="black"/>
<path d="M99.7203 106.737H96.2115V110.246H99.7203V106.737Z" fill="black"/>
<path d="M103.229 106.737H99.7203V110.246H103.229V106.737Z" fill="black"/>
<path d="M106.738 106.737H103.229V110.246H106.738V106.737Z" fill="black"/>
<path d="M110.247 106.737H106.738V110.246H110.247V106.737Z" fill="black"/>
<path d="M113.755 106.737H110.247V110.246H113.755V106.737Z" fill="black"/>
<path d="M117.264 106.737H113.755V110.246H117.264V106.737Z" fill="black"/>
<path d="M12.001 110.246H8.49219V113.754H12.001V110.246Z" fill="black"/>
<path d="M19.0185 110.246H15.5097V113.754H19.0185V110.246Z" fill="black"/>
<path d="M22.5273 110.246H19.0185V113.754H22.5273V110.246Z" fill="black"/>
<path d="M26.036 110.246H22.5273V113.754H26.036V110.246Z" fill="black"/>
<path d="M33.0536 110.246H29.5448V113.754H33.0536V110.246Z" fill="black"/>
<path d="M40.0711 110.246H36.5624V113.754H40.0711V110.246Z" fill="black"/>
<path d="M43.5799 110.246H40.0711V113.754H43.5799V110.246Z" fill="black"/>
<path d="M47.0887 110.246H43.5799V113.754H47.0887V110.246Z" fill="black"/>
<path d="M54.1062 110.246H50.5975V113.754H54.1062V110.246Z" fill="black"/>
<path d="M57.615 110.246H54.1062V113.754H57.615V110.246Z" fill="black"/>
<path d="M61.1238 110.246H57.615V113.754H61.1238V110.246Z" fill="black"/>
<path d="M71.6501 110.246H68.1413V113.754H71.6501V110.246Z" fill="black"/>
<path d="M75.1589 110.246H71.6501V113.754H75.1589V110.246Z" fill="black"/>
<path d="M82.1764 110.246H78.6676V113.754H82.1764V110.246Z" fill="black"/>
<path d="M85.6852 110.246H82.1764V113.754H85.6852V110.246Z" fill="black"/>
<path d="M103.229 110.246H99.7203V113.754H103.229V110.246Z" fill="black"/>
<path d="M110.247 110.246H106.738V113.754H110.247V110.246Z" fill="black"/>
<path d="M113.755 110.246H110.247V113.754H113.755V110.246Z" fill="black"/>
<path d="M124.282 110.246H120.773V113.754H124.282V110.246Z" fill="black"/>
<path d="M12.001 113.754H8.49219V117.263H12.001V113.754Z" fill="black"/>
<path d="M19.0185 113.754H15.5097V117.263H19.0185V113.754Z" fill="black"/>
<path d="M22.5273 113.754H19.0185V117.263H22.5273V113.754Z" fill="black"/>
<path d="M26.036 113.754H22.5273V117.263H26.036V113.754Z" fill="black"/>
<path d="M33.0536 113.754H29.5448V117.263H33.0536V113.754Z" fill="black"/>
<path d="M43.5799 113.754H40.0711V117.263H43.5799V113.754Z" fill="black"/>
<path d="M71.6501 113.754H68.1413V117.263H71.6501V113.754Z" fill="black"/>
<path d="M89.1939 113.754H85.6852V117.263H89.1939V113.754Z" fill="black"/>
<path d="M99.7203 113.754H96.2115V117.263H99.7203V113.754Z" fill="black"/>
<path d="M113.755 113.754H110.247V117.263H113.755V113.754Z" fill="black"/>
<path d="M117.264 113.754H113.755V117.263H117.264V113.754Z" fill="black"/>
<path d="M124.282 113.754H120.773V117.263H124.282V113.754Z" fill="black"/>
<path d="M12.001 117.263H8.49219V120.772H12.001V117.263Z" fill="black"/>
<path d="M33.0536 117.263H29.5448V120.772H33.0536V117.263Z" fill="black"/>
<path d="M43.5799 117.263H40.0711V120.772H43.5799V117.263Z" fill="black"/>
<path d="M47.0887 117.263H43.5799V120.772H47.0887V117.263Z" fill="black"/>
<path d="M50.5975 117.263H47.0887V120.772H50.5975V117.263Z" fill="black"/>
<path d="M61.1238 117.263H57.615V120.772H61.1238V117.263Z" fill="black"/>
<path d="M68.1413 117.263H64.6325V120.772H68.1413V117.263Z" fill="black"/>
<path d="M71.6501 117.263H68.1413V120.772H71.6501V117.263Z" fill="black"/>
<path d="M75.1589 117.263H71.6501V120.772H75.1589V117.263Z" fill="black"/>
<path d="M85.6852 117.263H82.1764V120.772H85.6852V117.263Z" fill="black"/>
<path d="M89.1939 117.263H85.6852V120.772H89.1939V117.263Z" fill="black"/>
<path d="M96.2115 117.263H92.7027V120.772H96.2115V117.263Z" fill="black"/>
<path d="M103.229 117.263H99.7203V120.772H103.229V117.263Z" fill="black"/>
<path d="M106.738 117.263H103.229V120.772H106.738V117.263Z" fill="black"/>
<path d="M12.001 120.772H8.49219V124.281H12.001V120.772Z" fill="black"/>
<path d="M15.5097 120.772H12.001V124.281H15.5097V120.772Z" fill="black"/>
<path d="M19.0185 120.772H15.5097V124.281H19.0185V120.772Z" fill="black"/>
<path d="M22.5273 120.772H19.0185V124.281H22.5273V120.772Z" fill="black"/>
<path d="M26.036 120.772H22.5273V124.281H26.036V120.772Z" fill="black"/>
<path d="M29.5448 120.772H26.036V124.281H29.5448V120.772Z" fill="black"/>
<path d="M33.0536 120.772H29.5448V124.281H33.0536V120.772Z" fill="black"/>
<path d="M40.0711 120.772H36.5624V124.281H40.0711V120.772Z" fill="black"/>
<path d="M50.5975 120.772H47.0887V124.281H50.5975V120.772Z" fill="black"/>
<path d="M82.1764 120.772H78.6676V124.281H82.1764V120.772Z" fill="black"/>
<path d="M96.2115 120.772H92.7027V124.281H96.2115V120.772Z" fill="black"/>
<path d="M110.247 120.772H106.738V124.281H110.247V120.772Z" fill="black"/>
<path d="M124.282 120.772H120.773V124.281H124.282V120.772Z" fill="black"/>
</g>
<defs>
<clipPath id="clip0_387_5428">
<rect width="132" height="132" fill="white"/>
</clipPath>
</defs>
</svg>
